<svg xmlns="http://www.w3.org/2000/svg" viewBox="0 0 320.56 113.39" xmlns:v="https://vecta.io/nano"><path d="M0 44.52c0-.24.08-.43.25-.58s.37-.22.62-.22h1.15L21.14 63.6h.05V45a.82.82 0 0 1 .25-.61.87.87 0 0 1 .62-.25h4.23c.24 0 .45.08.62.25a.82.82 0 0 1 .25.61v30.25a.69.69 0 0 1-.25.54c-.17.15-.37.22-.62.22h-1.1L6.02 55.44h-.05v19.33c0 .24-.1.44-.25.6-.17.16-.38.25-.62.25H.88a.85.85 0 0 1-.63-.25.82.82 0 0 1-.25-.61V44.52zm34.04.48a.82.82 0 0 1 .25-.61.84.84 0 0 1 .6-.25h23.18a.82.82 0 0 1 .61.25c.16.17.25.37.25.6v3.7a.82.82 0 0 1-.86.86h-18.2v7.42h16c.24 0 .44.08.6.24a.82.82 0 0 1 .25.6v3.7c0 .24-.08.44-.25.6s-.37.25-.6.25h-16v7.87h18.2a.82.82 0 0 1 .61.25.84.84 0 0 1 .25.6v3.7a.82.82 0 0 1-.25.61c-.17.16-.37.25-.6.25H34.9a.82.82 0 0 1-.61-.25.8.8 0 0 1-.25-.6V45zm62.6 0a.82.82 0 0 1 .25-.61c.17-.16.37-.25.6-.25H112a9.89 9.89 0 0 1 3.84.76 10.08 10.08 0 0 1 3.15 2.07 9.63 9.63 0 0 1 2.13 3.06c.5 1.16.77 2.43.77 3.78a8.56 8.56 0 0 1-.5 2.94 9.64 9.64 0 0 1-1.38 2.54c-.6.78-1.3 1.48-2.1 2.1a10.54 10.54 0 0 1-2.72 1.5l6.22 11.42c.15.3.16.6.02.88s-.4.43-.8.43h-4.77c-.2 0-.37-.04-.48-.13a1.23 1.23 0 0 1-.25-.27l-6.04-11.9h-6.57v11.46a.82.82 0 0 1-.25.61c-.17.16-.37.25-.6.25H97.5c-.24 0-.45-.08-.6-.25a.8.8 0 0 1-.25-.6V45zm14.88 13.44a4.21 4.21 0 0 0 1.72-.36c.54-.24 1.02-.57 1.43-.98a5.01 5.01 0 0 0 .98-1.45c.24-.55.36-1.14.36-1.77a3.96 3.96 0 0 0-.36-1.68c-.24-.52-.57-.98-.98-1.4-.4-.4-.88-.72-1.43-.94-.54-.22-1.12-.34-1.72-.34h-8.93v8.9h8.93zm13.8 1.5c0-2.25.42-4.36 1.26-6.34s1.98-3.7 3.44-5.15c1.45-1.45 3.16-2.6 5.12-3.46s4.07-1.28 6.3-1.28 4.35.43 6.3 1.28a16.78 16.78 0 0 1 5.15 3.46c1.47 1.45 2.62 3.17 3.46 5.15s1.26 4.1 1.26 6.34-.42 4.35-1.26 6.3-2 3.66-3.46 5.1-3.18 2.58-5.15 3.42c-1.96.84-4.07 1.26-6.3 1.26s-4.35-.42-6.3-1.26-3.67-1.98-5.12-3.42-2.6-3.14-3.44-5.1c-.84-1.95-1.26-4.06-1.26-6.3zm5.84-.02a10.24 10.24 0 0 0 .8 4 10.18 10.18 0 0 0 2.2 3.27c.93.93 2.02 1.66 3.28 2.2s2.6.8 4 .8a10.24 10.24 0 0 0 4-.8 10.37 10.37 0 0 0 3.3-2.2A10.32 10.32 0 0 0 151 63.9c.54-1.26.8-2.6.8-4a10.24 10.24 0 0 0-.8-4c-.54-1.26-1.28-2.35-2.23-3.3a10.48 10.48 0 0 0-3.3-2.24c-1.26-.54-2.6-.83-4-.83s-2.74.28-4 .83-2.35 1.3-3.28 2.24-1.66 2.04-2.2 3.3-.8 2.6-.8 4zM163.82 45a.82.82 0 0 1 .25-.61.84.84 0 0 1 .6-.25h13.73c1.35 0 2.6.2 3.75.63s2.16 1 3 1.76 1.52 1.64 2 2.66a7.64 7.64 0 0 1 .72 3.29 6.44 6.44 0 0 1-.47 2.45 8.13 8.13 0 0 1-1.2 2.07c-.5.62-1.03 1.15-1.6 1.6s-1.12.8-1.66 1.03c.6.18 1.24.47 1.9.88a8.93 8.93 0 0 1 1.9 1.53 8.23 8.23 0 0 1 1.46 2.15c.4.82.58 1.74.58 2.76 0 1.26-.25 2.42-.76 3.48s-1.2 1.98-2.1 2.74a10.34 10.34 0 0 1-3.1 1.8c-1.18.44-2.46.65-3.84.65h-14.3a.82.82 0 0 1-.61-.25.8.8 0 0 1-.25-.6V45zm14.06 12.36c1.13 0 2.06-.4 2.77-1.16.72-.77 1.07-1.73 1.07-2.86s-.36-2.05-1.07-2.75c-.72-.7-1.64-1.05-2.77-1.05h-8.22v7.82h8.22zm.63 12.94c1.13 0 2.1-.4 2.86-1.16.78-.77 1.16-1.74 1.16-2.9 0-.57-.13-1.1-.38-1.56-.25-.48-.6-.9-1.03-1.23s-.92-.6-1.48-.8a4.84 4.84 0 0 0-1.68-.3h-8.3v7.96h8.86zm14.72-10.4c0-2.25.42-4.36 1.26-6.34s1.98-3.7 3.44-5.15c1.45-1.45 3.16-2.6 5.12-3.46s4.07-1.28 6.32-1.28 4.35.43 6.3 1.28a16.78 16.78 0 0 1 5.15 3.46c1.47 1.45 2.62 3.17 3.46 5.15s1.26 4.1 1.26 6.34-.42 4.35-1.26 6.3-2 3.66-3.46 5.1-3.18 2.58-5.15 3.42c-1.96.84-4.07 1.26-6.3 1.26-2.25 0-4.35-.42-6.32-1.26-1.96-.84-3.67-1.98-5.12-3.42s-2.6-3.14-3.44-5.1-1.26-4.06-1.26-6.3zm5.84-.02a10.24 10.24 0 0 0 .8 4 10.18 10.18 0 0 0 2.2 3.27c.93.93 2.02 1.66 3.28 2.2s2.6.8 4 .8a10.24 10.24 0 0 0 4-.8 10.37 10.37 0 0 0 3.3-2.2 10.13 10.13 0 0 0 2.22-3.27c.54-1.26.8-2.6.8-4a10.24 10.24 0 0 0-.8-4c-.54-1.26-1.28-2.35-2.22-3.3a10.48 10.48 0 0 0-3.3-2.24c-1.26-.54-2.6-.83-4-.83s-2.74.28-4 .83-2.35 1.3-3.28 2.24-1.66 2.04-2.2 3.3c-.54 1.25-.8 2.58-.8 4zm37.06-10.35h-6.88a.82.82 0 0 1-.61-.25.8.8 0 0 1-.25-.6v-3.7a.82.82 0 0 1 .25-.61.84.84 0 0 1 .6-.25h19.6a.82.82 0 0 1 .61.25c.16.17.25.37.25.6v3.7a.82.82 0 0 1-.86.86h-6.88v25.22a.82.82 0 0 1-.85.86h-4.15c-.24 0-.44-.08-.6-.25a.83.83 0 0 1-.24-.6V49.53zm19.67-4.56a.82.82 0 0 1 .85-.86h4.15c.24 0 .44.08.6.25s.25.37.25.6V74.7a.82.82 0 0 1-.85.86h-4.15c-.24 0-.44-.08-.6-.25a.84.84 0 0 1-.25-.6V44.97zm12.62 14.93c0-2.25.43-4.36 1.28-6.34s2-3.7 3.46-5.15c1.45-1.45 3.17-2.6 5.15-3.46s4.1-1.28 6.34-1.28c2.28 0 4.28.35 6 1.06 1.72.7 3.35 1.75 4.88 3.12.45.42.46.84.04 1.26l-2.74 2.83c-.36.4-.73.4-1.12 0a10.72 10.72 0 0 0-3.24-1.96 10.24 10.24 0 0 0-3.69-.7c-1.44 0-2.77.28-4 .83s-2.3 1.3-3.17 2.27a10.96 10.96 0 0 0-2.09 3.35c-.5 1.27-.76 2.6-.76 4.02s.25 2.74.76 4 1.2 2.36 2.1 3.3 1.96 1.7 3.2 2.25c1.23.55 2.56.83 4 .83 1.35 0 2.6-.23 3.73-.7 1.14-.46 2.2-1.1 3.15-1.87.18-.15.37-.22.58-.22a.73.73 0 0 1 .54.22l2.8 2.88a.84.84 0 0 1 .2.63c-.02.24-.1.43-.25.58-1.53 1.5-3.23 2.6-5.1 3.28s-3.8 1.03-5.82 1.03c-2.25 0-4.36-.42-6.34-1.26s-3.7-1.98-5.15-3.42-2.6-3.14-3.46-5.1c-.84-1.93-1.27-4.03-1.27-6.28zm31.92 12.64c-.2-.2-.35-.4-.43-.56s-.01-.43.2-.8l1.62-2.8c.18-.33.43-.5.74-.52.3-.01.58.05.8.2.06.03.3.2.74.5.43.3.98.6 1.64.94a19.75 19.75 0 0 0 2.16.92c.78.3 1.53.43 2.25.43 1.17 0 2.14-.34 2.92-1s1.17-1.5 1.17-2.45c0-1.14-.48-2.13-1.44-2.97s-2.38-1.65-4.27-2.43a26.55 26.55 0 0 1-3.1-1.48 12.57 12.57 0 0 1-2.72-2.02 9.38 9.38 0 0 1-1.91-2.7c-.48-1.02-.72-2.2-.72-3.5 0-1 .2-2 .58-3.03a8.14 8.14 0 0 1 1.78-2.79c.8-.82 1.84-1.5 3.1-2.02s2.8-.8 4.6-.8c1.14 0 2.2.13 3.2.38s1.9.55 2.67.88c.78.33 1.43.66 1.95 1l1.15.76a.92.92 0 0 1 .43.67 1.13 1.13 0 0 1-.16.81l-1.7 2.56a1.62 1.62 0 0 1-.72.6.86.86 0 0 1-.85-.07l-.8-.5c-.43-.27-.95-.55-1.55-.83l-1.93-.8c-.7-.24-1.35-.36-1.98-.36-1.3 0-2.27.34-2.94 1.03s-1 1.4-1 2.1c0 1.05.43 1.96 1.28 2.74.86.78 2.2 1.54 4.04 2.3l3.3 1.53c1.13.57 2.14 1.25 3.04 2.05s1.64 1.73 2.2 2.8.86 2.34.86 3.78a8.04 8.04 0 0 1-.72 3.35 8.3 8.3 0 0 1-2.07 2.8c-.9.8-2 1.46-3.26 1.96-1.27.5-2.7.74-4.3.74-1.4 0-2.67-.14-3.8-.43-1.12-.28-2.1-.6-2.92-1a12.28 12.28 0 0 1-2.05-1.15c-.53-.36-.9-.66-1.1-.87zM95.63 87.3h-35.7c-.56 0-1.02-.46-1.02-1.02v-3.36c0-.56.46-1.02 1.02-1.02h35.7c.56 0 1.02.46 1.02 1.02v3.36a1.02 1.02 0 0 1-1.02 1.02zM115.2 0H40.36a19.28 19.28 0 0 0-19.28 19.28v17.4c0 .56.46 1.02 1.02 1.02h4.3c.56 0 1.02-.46 1.02-1.02V19.1A12.76 12.76 0 0 1 40.18 6.34h75.2a12.76 12.76 0 0 1 12.76 12.76v17.58c0 .56.46 1.02 1.02 1.02h4.3c.56 0 1.02-.46 1.02-1.02v-17.4A19.28 19.28 0 0 0 115.19 0zm18.25 81.9h-4.3c-.56 0-1.02.46-1.02 1.02V94.3a12.76 12.76 0 0 1-12.76 12.76h-75.2A12.76 12.76 0 0 1 27.41 94.3V82.92c0-.56-.46-1.02-1.02-1.02h-4.3c-.56 0-1.02.46-1.02 1.02v11.2a19.28 19.28 0 0 0 19.28 19.28h74.83a19.28 19.28 0 0 0 19.28-19.28v-11.2a1.02 1.02 0 0 0-1.02-1.02zm-17.37-49.7h-31.1v34.6a3.4 3.4 0 0 1-3.4 3.4h-7.55a3.4 3.4 0 0 1-3.4-3.4V32.2h-31.2l-5.4 5.4H65.2v31.2c0 3.76 3.05 6.8 6.8 6.8h11.56c3.76 0 6.8-3.05 6.8-6.8V37.6h31.1l-5.4-5.4z"/></svg>